<?xml version="1.0" encoding="UTF-8"?>
<!-- Generator: visioncortex VTracer 0.6.4 -->
<svg version="1.1" xmlns="http://www.w3.org/2000/svg" width="1024" height="1024">
<path d="M0 0 C337.92 0 675.84 0 1024 0 C1024 337.92 1024 675.84 1024 1024 C686.08 1024 348.16 1024 0 1024 C0 686.08 0 348.16 0 0 Z " fill="#000529" transform="translate(0,0)"/>
<path d="M0 0 C4.87416862 0.00252199 9.74831996 -0.00661182 14.6224817 -0.01403749 C24.10645834 -0.02662867 33.59040648 -0.02859883 43.07439008 -0.02623723 C50.78175693 -0.02443978 58.48911526 -0.02623383 66.19648111 -0.03046167 C67.30150061 -0.03105686 68.40652011 -0.03165205 69.54502505 -0.03226527 C71.79086798 -0.0334772 74.03671091 -0.03469133 76.28255383 -0.03590765 C97.21529004 -0.04671836 118.14801002 -0.04464888 139.08074711 -0.0385228 C158.21581096 -0.0333331 177.35082423 -0.04467447 196.48587807 -0.06362102 C216.20129886 -0.08299125 235.91669567 -0.09125852 255.63212603 -0.08749777 C266.67492527 -0.08558786 277.71768122 -0.08805495 288.76047266 -0.10221231 C298.13749963 -0.11411496 307.51445648 -0.11554178 316.8914844 -0.10342214 C321.67062989 -0.09753191 326.44964701 -0.09643906 331.22878397 -0.10842454 C335.60539698 -0.11927363 339.98177424 -0.11619181 344.35837618 -0.10216286 C345.93819129 -0.09951381 347.51802483 -0.10188901 349.09782185 -0.10989872 C360.20902947 -0.16231166 370.72116931 -0.08127688 379.1222986 8.08079588 C385.48949743 15.72687653 387.84663613 23.18557023 387.3254236 33.08860838 C386.23951797 42.31880623 381.88884791 48.08260693 374.9504236 54.27610838 C369.16711453 57.97945542 363.47746196 60.40263104 356.569507 60.39915621 C355.69417731 60.40114726 354.81884762 60.40313831 353.91699278 60.40518969 C352.95979802 60.40227685 352.00260326 60.39936401 351.0164026 60.3963629 C349.99618037 60.39721733 348.97595813 60.39807175 347.92482007 60.39895207 C344.4961624 60.40060305 341.06755334 60.39509168 337.63890016 60.38963377 C335.18513939 60.3893518 332.73137853 60.38950985 330.27761781 60.39007628 C324.98964501 60.39030422 319.70168742 60.38746236 314.41371858 60.38183844 C306.76819849 60.37371249 299.12268437 60.37110709 291.47716042 60.36985045 C279.07289971 60.36766166 266.66864558 60.36100624 254.26438844 60.35154784 C242.21458409 60.34236926 230.16478152 60.3352906 218.11497438 60.33104002 C217.37226337 60.3307773 216.62955237 60.33051458 215.86433497 60.33024389 C212.13838378 60.32893886 208.41243257 60.32767515 204.68648136 60.32643199 C173.77445732 60.31606475 142.86244146 60.29837679 111.9504236 60.27610838 C113.59747546 64.83117676 115.83759882 67.39529389 119.4504236 70.52610838 C119.98796266 71.0049951 120.52550172 71.48388182 121.07932985 71.97728026 C122.1776651 72.95487653 123.27922077 73.92886701 124.38401735 74.89915526 C126.59041172 76.83869146 128.76970203 78.80779476 130.9504236 80.77610838 C132.1569861 81.85892088 132.1569861 81.85892088 133.3879236 82.96360838 C136.77594237 86.02108874 140.13612841 89.10853869 143.4960779 92.19676268 C146.56609802 95.01572861 149.65549281 97.81098783 152.7629236 100.58860838 C157.71362479 105.02909238 162.56404592 109.57310648 167.4179529 114.11863768 C170.94092363 117.41354405 174.48226935 120.68248488 178.0754236 123.90110838 C178.84499391 124.59333495 179.61456422 125.28556151 180.40745485 125.99876463 C181.78581353 127.2331473 183.16566341 128.46591016 184.55345094 129.6896826 C197.90845042 141.48375732 197.90845042 141.48375732 200.9504236 148.27610838 C201.26366579 148.95802245 201.57690797 149.63993651 201.89964235 150.34251463 C205.16355103 158.59828364 205.20531479 167.90480685 201.98557985 176.18626463 C197.82100187 184.59399754 191.2886102 190.88052298 182.4504236 194.15110838 C173.89919236 196.58806336 166.79199915 195.34536919 158.9504236 191.27610838 C155.33110725 188.55456318 152.17319764 185.44997842 148.9504236 182.27610838 C147.0809368 180.56174352 145.20563616 178.85370302 143.3254236 177.15110838 C136.50038069 170.9012033 129.76285198 164.55743075 123.01927125 158.21995604 C119.64429276 155.04889411 116.26625229 151.88110038 112.8879236 148.71360838 C112.22566774 148.09260252 111.56341188 147.47159667 110.88108766 146.83177245 C105.80146872 142.07009542 100.71590577 137.31480887 95.61888063 132.57176268 C92.26040053 129.44402803 88.91884971 126.2999782 85.59495485 123.13548338 C84.87179079 122.44970213 84.14862672 121.76392088 83.4035486 121.05735838 C82.00796209 119.73307922 80.6158547 118.40512096 79.22776735 117.07298338 C78.28030641 116.17579588 78.28030641 116.17579588 77.31370485 115.26048338 C76.75981081 114.73164549 76.20591676 114.2028076 75.63523805 113.65794432 C73.84072418 112.1861361 72.0577336 111.23389817 69.9504236 110.27610838 C71.19819343 116.27296581 73.35855366 119.41857744 77.6379236 123.71360838 C78.73370061 124.85483985 79.82875693 125.99676376 80.92307985 127.13938963 C81.44917848 127.68160155 81.97527711 128.22381346 82.51731813 128.78245604 C84.26521154 130.60419572 85.92962669 132.48693213 87.5754236 134.40110838 C90.31823581 137.57206689 93.12464976 140.67878871 95.9504236 143.77610838 C99.40809794 147.56755521 102.82097741 151.38970775 106.1847986 155.26438963 C108.18453044 157.54284516 110.22333654 159.78327576 112.2629236 162.02610838 C132.41376811 184.45427436 132.41376811 184.45427436 132.2238611 200.04563963 C131.46716197 208.98549934 127.74662506 216.42234893 120.9504236 222.27610838 C112.79363985 227.80122711 105.75197217 229.10099118 95.9504236 228.27610838 C84.26620804 225.73307323 76.6647056 216.29550179 69.1066736 207.68626463 C67.08192624 205.42309594 64.99080964 203.27901659 62.8254236 201.15110838 C59.61711131 197.9935204 56.66426612 194.68857969 53.7316736 191.27610838 C51.8761715 189.1927376 49.93819259 187.23329632 47.9504236 185.27610838 C45.35060177 182.71620704 42.88773962 180.10831298 40.5129236 177.33860838 C37.20952072 173.49093776 33.64908414 169.95666758 30.04026735 166.39720213 C27.49342395 163.8122751 25.20716559 161.11523541 22.9504236 158.27610838 C21.6304236 158.60610838 20.3104236 158.93610838 18.9504236 159.27610838 C20.33038086 163.28012946 22.16508396 166.0461214 24.8879236 169.27610838 C25.69100954 170.23517088 26.49409547 171.19423338 27.32151735 172.18235838 C28.19724275 173.21409814 29.07356 174.24533579 29.9504236 175.27610838 C30.85822428 176.34881472 31.76577291 177.4217344 32.67307985 178.49485838 C34.06619497 180.14137889 35.4599522 181.78733379 36.85569704 183.43162596 C40.55928729 187.79805261 44.21089048 192.20411235 47.8176111 196.65110838 C49.24780676 198.4113492 50.69073251 200.16131762 52.1457361 201.90110838 C60.76205843 212.32971991 63.72437799 220.66361641 62.9504236 234.27610838 C61.68373812 242.64180038 55.04120632 249.19319967 48.52464235 254.10423338 C36.9931152 261.38730316 25.7825317 263.46573832 12.3879236 263.52610838 C10.71246461 263.55704588 10.71246461 263.55704588 9.00315797 263.58860838 C-5.90986753 263.65777024 -21.82186399 259.57653205 -33.0495764 249.27610838 C-36.54130495 245.76099773 -39.93729834 242.21956644 -41.0495764 237.27610838 C-40.86115178 232.00021901 -39.90527553 228.92887598 -36.0495764 225.27610838 C-30.52060121 221.98225082 -25.2048512 221.79454514 -18.84254515 221.48704588 C-16.09549368 221.45681047 -16.09549368 221.45681047 -14.0495764 220.27610838 C-13.8382311 217.88487888 -13.8382311 217.88487888 -15.0495764 215.27610838 C-19.83871814 211.43698661 -26.06365188 210.84748186 -31.9714514 210.22532713 C-32.74981856 210.14141722 -33.52818572 210.05750731 -34.33013976 209.97105467 C-44.48128427 208.94544078 -54.67010339 208.63652848 -64.8620764 208.27610838 C-103.20075175 206.91289886 -103.20075175 206.91289886 -121.8620764 203.02610838 C-122.90903685 202.81139891 -123.9559973 202.59668944 -125.03468382 202.37547362 C-133.77120777 200.49822069 -141.89047616 197.89618699 -150.0495764 194.27610838 C-151.11047484 193.81462401 -152.17137328 193.35313963 -153.26442015 192.87767088 C-174.87080397 182.81137624 -190.89270773 164.53341771 -199.0495764 142.27610838 C-201.5610332 133.87496949 -203.72481619 125.05816567 -204.0495764 116.27610838 C-204.1011389 114.97544432 -204.1527014 113.67478026 -204.2058264 112.33470213 C-204.91900145 85.43149976 -197.12272435 59.59544107 -179.0495764 39.27610838 C-178.38570921 38.51813963 -177.72184203 37.76017088 -177.03785765 36.97923338 C-148.47201237 6.35411275 -97.27779118 3.21373365 -58.04034483 1.16827452 C-57.25594162 1.12635062 -56.4715384 1.08442671 -55.66336539 1.04123238 C-37.11124783 0.06969613 -18.57321115 -0.01810858 0 0 Z " fill="#FEFEFD" transform="translate(345.0495764017105,306.7238916158676)"/>
<path d="M0 0 C1.08427969 0.25217254 1.08427969 0.25217254 2.19046402 0.50943947 C6.00427051 1.39644432 9.8159597 2.2919289 13.62597656 3.19506836 C17.54512772 4.1224309 21.47024849 5.02129876 25.39744377 5.91388226 C28.43636365 6.60981471 31.47021576 7.32612114 34.50305557 8.0480442 C35.9485069 8.38846065 37.39575404 8.72134808 38.84475327 9.04633141 C51.53272651 11.90498348 51.53272651 11.90498348 54.80517578 15.74145508 C56.79224647 19.22075137 57.57044865 20.93659978 57.57674026 24.89030933 C57.58058141 25.79340739 57.58442255 26.69650545 57.5883801 27.62697011 C57.58751362 28.62548944 57.58664713 29.62400877 57.58575439 30.65278625 C57.58872552 31.70860734 57.59169664 32.76442842 57.5947578 33.85224408 C57.60347539 37.41362959 57.60495562 40.9749816 57.60644531 44.53637695 C57.61107131 47.0802518 57.61609567 49.62412594 57.62149048 52.16799927 C57.63463726 59.09568183 57.64110025 66.02335331 57.64550114 72.95104623 C57.64826185 77.27519304 57.65249889 81.5993376 57.65700531 85.92348289 C57.6691996 97.89122153 57.67949846 109.85895836 57.6828804 121.82670307 C57.68320975 122.97612796 57.68320975 122.97612796 57.68354575 124.14877356 C57.68376403 124.91691159 57.68398231 125.68504963 57.6842072 126.47646457 C57.68465067 128.03305646 57.68509723 129.58964835 57.68554688 131.14624023 C57.68587902 132.30443024 57.68587902 132.30443024 57.68621787 133.48601802 C57.69016626 145.99850191 57.70762077 158.51092757 57.7309064 171.02338896 C57.75460984 183.86380966 57.7670818 196.70420112 57.76824832 209.54464406 C57.76916567 216.75646743 57.77493303 223.96821496 57.79306793 231.18001747 C57.81006208 237.96217862 57.81172909 244.74417108 57.80292892 251.52635574 C57.8021558 254.0188873 57.80653723 256.51142646 57.81638718 259.00393867 C57.82902464 262.40040802 57.82327429 265.79636017 57.81280518 269.19282532 C57.82488978 270.68056606 57.82488978 270.68056606 57.83721852 272.19836217 C57.8015484 277.12908198 57.75531962 280.66907851 54.4453125 284.61328125 C46.87986571 290.19279826 37.93305875 293.78045383 29.4453125 297.73828125 C27.82952334 298.49602262 26.21388315 299.25408174 24.59838867 300.01245117 C0.4631587 311.32755692 0.4631587 311.32755692 -11.17333984 316.52197266 C-12.76908439 317.25326014 -14.34817617 318.02195836 -15.90869141 318.82568359 C-16.66456543 319.20289551 -17.42043945 319.58010742 -18.19921875 319.96875 C-18.84866455 320.3093042 -19.49811035 320.6498584 -20.16723633 321.00073242 C-27.18667171 322.80171037 -34.19345468 319.50094884 -40.6328125 316.96484375 C-41.59005219 316.59621719 -42.54729187 316.22759064 -43.53353882 315.84779358 C-46.62752535 314.65369657 -49.71623698 313.44661697 -52.8046875 312.23828125 C-54.9286501 311.41324251 -57.05283731 310.58878175 -59.17724609 309.76489258 C-63.37547211 308.13537278 -67.57159966 306.50059272 -71.76660156 304.86279297 C-76.73395773 302.92686087 -81.71474516 301.02937143 -86.703125 299.1484375 C-88.00640731 298.65276539 -89.30947793 298.15653621 -90.61230469 297.65966797 C-92.91932201 296.78087941 -95.22968537 295.91080381 -97.54394531 295.05126953 C-102.95817538 292.96307225 -106.96366122 291.2573722 -110.5546875 286.61328125 C-111.48959069 283.80857168 -111.68228445 282.1128598 -111.68890858 279.21320534 C-111.69336642 278.30811623 -111.69782426 277.40302713 -111.70241719 276.47051108 C-111.70223283 275.47490459 -111.70204847 274.47929811 -111.70185852 273.45352173 C-111.70553521 272.39684622 -111.7092119 271.34017071 -111.713 270.25147474 C-111.72405672 266.69319836 -111.72788402 263.13495116 -111.73168945 259.57666016 C-111.73795247 257.0326376 -111.74459913 254.48861596 -111.75160217 251.94459534 C-111.77084164 244.29874391 -111.78143101 236.65289761 -111.79032996 229.00702816 C-111.79471289 225.40741868 -111.8000796 221.80781068 -111.80531883 218.20820236 C-111.82232879 206.24471403 -111.83682417 194.28122661 -111.84406757 182.31772804 C-111.84597749 179.21344629 -111.84789782 176.10916454 -111.84985352 173.00488281 C-111.85033726 172.23332164 -111.850821 171.46176047 -111.8513194 170.66681866 C-111.85962431 158.16084604 -111.88497 145.65496893 -111.91743419 133.14903803 C-111.95048384 120.31310612 -111.96851434 107.4772228 -111.97171181 94.64124811 C-111.97387861 87.43276506 -111.98265219 80.22442139 -112.00817299 73.01597977 C-112.03211479 66.23787562 -112.03571893 59.46006605 -112.02541161 52.68191338 C-112.02491424 50.19098896 -112.03129332 47.7000525 -112.04496765 45.20916557 C-112.06256282 41.81480812 -112.05564086 38.42136484 -112.04243469 35.02700806 C-112.05340394 34.03586301 -112.06437318 33.04471797 -112.07567483 32.02353823 C-112.03546556 27.7579351 -111.95294093 25.28253292 -109.7366209 21.55808067 C-106.7874362 18.92941534 -103.67255995 17.88380172 -99.95703125 16.78125 C-99.17923813 16.53650436 -98.40144501 16.29175873 -97.6000824 16.03959656 C-94.92472355 15.20783056 -92.24138364 14.40764041 -89.5546875 13.61328125 C-88.55882629 13.31665588 -87.56296509 13.02003052 -86.53692627 12.7144165 C-78.74439885 10.40210234 -70.93250681 8.15959444 -63.1171875 5.92578125 C-60.78701401 5.25619117 -58.45693532 4.58627106 -56.12695312 3.91601562 C-44.0312212 0.4419686 -44.0312212 0.4419686 -40.3899231 -0.57357788 C-38.50367291 -1.11455131 -36.62678613 -1.68933561 -34.76119995 -2.29776001 C-22.82588174 -6.02725801 -11.85060918 -2.7804652 0 0 Z " fill="#FEFEFE" transform="translate(779.5546875,389.38671875)"/>
<path d="M0 0 C5.66869078 2.83434539 9.53661928 7.17174604 12 13 C12.9881978 19.69894084 12.38706492 24.90800906 8.34765625 30.41015625 C5.00896599 34.34884302 2.3625941 35.59172023 -2.9140625 36.0625 C-7.75824252 35.91735603 -11.14287303 33.72076586 -14.75 30.6875 C-19.32856356 25.21866019 -20.61994346 20.81730943 -20.41796875 13.7578125 C-19.58914602 8.28913168 -16.81563403 4.66000825 -12.8125 1 C-8.50941726 -0.52998498 -4.50944366 -0.65144451 0 0 Z " fill="#020728" transform="translate(726,609)"/>
<path d="M0 0 C4.9710149 2.53240382 8.49430567 5.98861134 11 11 C11.49328755 16.85475711 11.85744288 22.18984281 9.3125 27.5625 C8.549375 28.366875 7.78625 29.17125 7 30 C5.948125 31.175625 5.948125 31.175625 4.875 32.375 C0.60915383 34.78613044 -3.21208837 34.75315464 -8 34 C-12.89472807 31.64327908 -15.31615602 28.67187656 -18 24 C-19.84961854 18.45114437 -19.79897602 13.0584676 -17.375 7.6875 C-13.39458878 0.73911664 -7.68507843 -1.36592956 0 0 Z " fill="#010627" transform="translate(725,526)"/>
<path d="M0 0 C3.62613199 0.56959153 5.25517741 1.92374534 7.75 4.5625 C8.36359375 5.20316406 8.9771875 5.84382813 9.609375 6.50390625 C10.06828125 6.99761719 10.5271875 7.49132812 11 8 C6.61031544 8 5.23094261 5.87194899 2 3 C3.00445663 5.24071094 3.87754985 6.87754985 5.625 8.625 C6.07875 9.07875 6.5325 9.5325 7 10 C7 10.66 7 11.32 7 12 C7.99 12.33 8.98 12.66 10 13 C11.37482452 14.52952876 12.67665897 16.12522906 13.9375 17.75 C19.29679929 24.48007716 25.11158076 30.73296835 31 37 C30.67 37.66 30.34 38.32 30 39 C25.80969348 34.92432193 21.83849809 30.73648082 18.0234375 26.30859375 C15.07547387 22.94518351 12.03715965 19.66626229 8.99511719 16.38793945 C7.65310595 14.93474273 6.32650101 13.46736838 5 12 C4.52570557 11.47744629 4.05141113 10.95489258 3.56274414 10.41650391 C0.03660867 6.39537367 0.03660867 6.39537367 -0.3125 2.625 C-0.209375 1.75875 -0.10625 0.8925 0 0 Z " fill="#070810" transform="translate(415,417)"/>
<path d="M0 0 C3.25543229 0.34879632 4.01873107 1.02133261 6.25 3.5625 C6.8275 4.366875 7.405 5.17125 8 6 C4.25 8 4.25 8 2 8 C-0.1519437 4.77208445 -0.20086443 3.71599191 0 0 Z " fill="#01062A" transform="translate(365,464)"/>
<path d="M0 0 C4.41889613 1.35021826 6.34345343 3.26115668 9 7 C8.01 7 7.02 7 6 7 C5.67 6.01 5.34 5.02 5 4 C3.68352881 3.30062468 2.34977849 2.63270867 1 2 C0.67 1.34 0.34 0.68 0 0 Z " fill="#101220" transform="translate(487,484)"/>
<path d="M0 0 C3.36720387 1.39332574 4.9859524 2.9789286 7 6 C4 6 4 6 1.8125 4.125 C0 2 0 2 0 0 Z " fill="#1B1C2C" transform="translate(366,464)"/>
</svg>
